<svg xmlns="http://www.w3.org/2000/svg" width="1032" height="1386" viewBox="0 0 1032 1386" role="img" aria-labelledby="title description">
<title id="title">T113-S3: twelve all-pin fanout fixtures</title>
<desc id="description">The QFP and four independent terminal banks rotate through four orientations and three band offsets. Buses break out near their source pins on all four sides. Twenty supply pins and both ground pads drop to five separate plane layers. Pin 106 is NC. Dashed squares show SoC breakout boundaries. No solved routes are shown.</desc>
<style>text{font-family:system-ui,-apple-system,sans-serif;fill:#294052}</style>
<defs><g id="soc"><rect x="-7" y="-7" width="14" height="14" fill="#e7eef4" stroke="#506a80" stroke-width=".15"/><rect x="-8.45" y="6.1" width="1.5" height="0.2" fill="#28976f"><title>1: PG6</title></rect><rect x="-8.45" y="5.7" width="1.5" height="0.2" fill="#28976f"><title>2: PG7</title></rect><rect x="-8.45" y="5.3" width="1.5" height="0.2" fill="#28976f"><title>3: PG8</title></rect><rect x="-8.45" y="4.9" width="1.5" height="0.2" fill="#28976f"><title>4: PG9</title></rect><rect x="-8.45" y="4.5" width="1.5" height="0.2" fill="#28976f"><title>5: PG10</title></rect><rect x="-8.45" y="4.1" width="1.5" height="0.2" fill="#28976f"><title>6: PG11</title></rect><rect x="-8.45" y="3.7" width="1.5" height="0.2" fill="#28976f"><title>7: PF0</title></rect><rect x="-8.45" y="3.3" width="1.5" height="0.2" fill="#28976f"><title>8: PF1</title></rect><rect x="-8.45" y="2.9" width="1.5" height="0.2" fill="#28976f"><title>9: PF2</title></rect><rect x="-8.45" y="2.5" width="1.5" height="0.2" fill="#28976f"><title>10: PF3</title></rect><rect x="-8.45" y="2.1" width="1.5" height="0.2" fill="#28976f"><title>11: PF4</title></rect><rect x="-8.45" y="1.7" width="1.5" height="0.2" fill="#28976f"><title>12: PF5</title></rect><rect x="-8.45" y="1.3" width="1.5" height="0.2" fill="#28976f"><title>13: PF6</title></rect><rect x="-8.45" y="0.9" width="1.5" height="0.2" fill="#28976f"><title>14: PC7</title></rect><rect x="-8.45" y="0.5" width="1.5" height="0.2" fill="#28976f"><title>15: PC6</title></rect><rect x="-8.45" y="0.1" width="1.5" height="0.2" fill="#28976f"><title>16: PC5</title></rect><rect x="-8.45" y="-0.3" width="1.5" height="0.2" fill="#28976f"><title>17: PC4</title></rect><rect x="-8.45" y="-0.7" width="1.5" height="0.2" fill="#28976f"><title>18: PC3</title></rect><rect x="-8.45" y="-1.1" width="1.5" height="0.2" fill="#28976f"><title>19: PC2</title></rect><rect x="-8.45" y="-1.5" width="1.5" height="0.2" fill="#a768be"><title>20: VCC-PLL</title></rect><rect x="-8.45" y="-1.9" width="1.5" height="0.2" fill="#28976f"><title>21: REFCLK-OUT</title></rect><rect x="-8.45" y="-2.3" width="1.5" height="0.2" fill="#28976f"><title>22: DXOUT</title></rect><rect x="-8.45" y="-2.7" width="1.5" height="0.2" fill="#28976f"><title>23: DXIN</title></rect><rect x="-8.45" y="-3.1" width="1.5" height="0.2" fill="#28976f"><title>24: X32KOUT</title></rect><rect x="-8.45" y="-3.5" width="1.5" height="0.2" fill="#28976f"><title>25: X32KIN</title></rect><rect x="-8.45" y="-3.9" width="1.5" height="0.2" fill="#a768be"><title>26: VCC-RTC</title></rect><rect x="-8.45" y="-4.3" width="1.5" height="0.2" fill="#28976f"><title>27: RESET</title></rect><rect x="-8.45" y="-4.7" width="1.5" height="0.2" fill="#28976f"><title>28: LDOA-OUT</title></rect><rect x="-8.45" y="-5.1" width="1.5" height="0.2" fill="#dc4a31"><title>29: LDO-IN</title></rect><rect x="-8.45" y="-5.5" width="1.5" height="0.2" fill="#28976f"><title>30: LDOB-OUT</title></rect><rect x="-8.45" y="-5.9" width="1.5" height="0.2" fill="#28976f"><title>31: PE13</title></rect><rect x="-8.45" y="-6.3" width="1.5" height="0.2" fill="#28976f"><title>32: PE12</title></rect><rect x="-6.3" y="-8.45" width="0.2" height="1.5" fill="#28976f"><title>33: PE3</title></rect><rect x="-5.9" y="-8.45" width="0.2" height="1.5" fill="#dc4a31"><title>34: VCC-PE</title></rect><rect x="-5.5" y="-8.45" width="0.2" height="1.5" fill="#28976f"><title>35: PE2</title></rect><rect x="-5.1" y="-8.45" width="0.2" height="1.5" fill="#28976f"><title>36: PE11</title></rect><rect x="-4.7" y="-8.45" width="0.2" height="1.5" fill="#28976f"><title>37: PE10</title></rect><rect x="-4.3" y="-8.45" width="0.2" height="1.5" fill="#28976f"><title>38: PE9</title></rect><rect x="-3.9" y="-8.45" width="0.2" height="1.5" fill="#28976f"><title>39: PE8</title></rect><rect x="-3.5" y="-8.45" width="0.2" height="1.5" fill="#28976f"><title>40: PE7</title></rect><rect x="-3.1" y="-8.45" width="0.2" height="1.5" fill="#28976f"><title>41: PE6</title></rect><rect x="-2.7" y="-8.45" width="0.2" height="1.5" fill="#28976f"><title>42: PE5</title></rect><rect x="-2.3" y="-8.45" width="0.2" height="1.5" fill="#28976f"><title>43: PE4</title></rect><rect x="-1.9" y="-8.45" width="0.2" height="1.5" fill="#28976f"><title>44: PE0</title></rect><rect x="-1.5" y="-8.45" width="0.2" height="1.5" fill="#28976f"><title>45: PE1</title></rect><rect x="-1.1" y="-8.45" width="0.2" height="1.5" fill="#2486b1"><title>46: VDD-SYS0</title></rect><rect x="-0.7" y="-8.45" width="0.2" height="1.5" fill="#28976f"><title>47: DZQ</title></rect><rect x="-0.3" y="-8.45" width="0.2" height="1.5" fill="#c79820"><title>48: VCC-DRAM0</title></rect><rect x="0.1" y="-8.45" width="0.2" height="1.5" fill="#c79820"><title>49: VCC-DRAM1</title></rect><rect x="0.5" y="-8.45" width="0.2" height="1.5" fill="#a768be"><title>50: VDD18-DRAM</title></rect><rect x="0.9" y="-8.45" width="0.2" height="1.5" fill="#2486b1"><title>51: VDD-SYS1</title></rect><rect x="1.3" y="-8.45" width="0.2" height="1.5" fill="#28976f"><title>52: PD22</title></rect><rect x="1.7" y="-8.45" width="0.2" height="1.5" fill="#28976f"><title>53: PD21</title></rect><rect x="2.1" y="-8.45" width="0.2" height="1.5" fill="#28976f"><title>54: PD20</title></rect><rect x="2.5" y="-8.45" width="0.2" height="1.5" fill="#28976f"><title>55: PD0</title></rect><rect x="2.9" y="-8.45" width="0.2" height="1.5" fill="#28976f"><title>56: PD1</title></rect><rect x="3.3" y="-8.45" width="0.2" height="1.5" fill="#28976f"><title>57: PD2</title></rect><rect x="3.7" y="-8.45" width="0.2" height="1.5" fill="#28976f"><title>58: PD3</title></rect><rect x="4.1" y="-8.45" width="0.2" height="1.5" fill="#28976f"><title>59: PD4</title></rect><rect x="4.5" y="-8.45" width="0.2" height="1.5" fill="#28976f"><title>60: PD5</title></rect><rect x="4.9" y="-8.45" width="0.2" height="1.5" fill="#28976f"><title>61: PD6</title></rect><rect x="5.3" y="-8.45" width="0.2" height="1.5" fill="#28976f"><title>62: PD7</title></rect><rect x="5.7" y="-8.45" width="0.2" height="1.5" fill="#28976f"><title>63: PD8</title></rect><rect x="6.1" y="-8.45" width="0.2" height="1.5" fill="#28976f"><title>64: PD9</title></rect><rect x="6.95" y="-6.3" width="1.5" height="0.2" fill="#a768be"><title>65: VCC-LVDS</title></rect><rect x="6.95" y="-5.9" width="1.5" height="0.2" fill="#dc4a31"><title>66: VCC-PD</title></rect><rect x="6.95" y="-5.5" width="1.5" height="0.2" fill="#28976f"><title>67: PD10</title></rect><rect x="6.95" y="-5.1" width="1.5" height="0.2" fill="#28976f"><title>68: PD11</title></rect><rect x="6.95" y="-4.7" width="1.5" height="0.2" fill="#28976f"><title>69: PD13</title></rect><rect x="6.95" y="-4.3" width="1.5" height="0.2" fill="#28976f"><title>70: PD12</title></rect><rect x="6.95" y="-3.9" width="1.5" height="0.2" fill="#28976f"><title>71: PD14</title></rect><rect x="6.95" y="-3.5" width="1.5" height="0.2" fill="#28976f"><title>72: PD15</title></rect><rect x="6.95" y="-3.1" width="1.5" height="0.2" fill="#28976f"><title>73: PD16</title></rect><rect x="6.95" y="-2.7" width="1.5" height="0.2" fill="#28976f"><title>74: PD17</title></rect><rect x="6.95" y="-2.3" width="1.5" height="0.2" fill="#28976f"><title>75: PD18</title></rect><rect x="6.95" y="-1.9" width="1.5" height="0.2" fill="#28976f"><title>76: PD19</title></rect><rect x="6.95" y="-1.5" width="1.5" height="0.2" fill="#dc4a31"><title>77: VCC-TVOUT</title></rect><rect x="6.95" y="-1.1" width="1.5" height="0.2" fill="#28976f"><title>78: TVOUT0</title></rect><rect x="6.95" y="-0.7" width="1.5" height="0.2" fill="#28976f"><title>79: PB7</title></rect><rect x="6.95" y="-0.3" width="1.5" height="0.2" fill="#28976f"><title>80: PB6</title></rect><rect x="6.95" y="0.1" width="1.5" height="0.2" fill="#2486b1"><title>81: VDD-SYS2</title></rect><rect x="6.95" y="0.5" width="1.5" height="0.2" fill="#28976f"><title>82: PB5</title></rect><rect x="6.95" y="0.9" width="1.5" height="0.2" fill="#dc4a31"><title>83: VCC-IO</title></rect><rect x="6.95" y="1.3" width="1.5" height="0.2" fill="#28976f"><title>84: PB4</title></rect><rect x="6.95" y="1.7" width="1.5" height="0.2" fill="#28976f"><title>85: PB3</title></rect><rect x="6.95" y="2.1" width="1.5" height="0.2" fill="#28976f"><title>86: PB2</title></rect><rect x="6.95" y="2.5" width="1.5" height="0.2" fill="#28976f"><title>87: MICIN3P</title></rect><rect x="6.95" y="2.9" width="1.5" height="0.2" fill="#28976f"><title>88: MICIN3N</title></rect><rect x="6.95" y="3.3" width="1.5" height="0.2" fill="#a768be"><title>89: AVCC</title></rect><rect x="6.95" y="3.7" width="1.5" height="0.2" fill="#28976f"><title>90: VRA2</title></rect><rect x="6.95" y="4.1" width="1.5" height="0.2" fill="#526274"><title>91: AGND</title></rect><rect x="6.95" y="4.5" width="1.5" height="0.2" fill="#28976f"><title>92: VRA1</title></rect><rect x="6.95" y="4.9" width="1.5" height="0.2" fill="#28976f"><title>93: FMINR</title></rect><rect x="6.95" y="5.3" width="1.5" height="0.2" fill="#28976f"><title>94: FMINL</title></rect><rect x="6.95" y="5.7" width="1.5" height="0.2" fill="#28976f"><title>95: LINEINR</title></rect><rect x="6.95" y="6.1" width="1.5" height="0.2" fill="#28976f"><title>96: LINEINL</title></rect><rect x="6.1" y="6.95" width="0.2" height="1.5" fill="#a768be"><title>97: HPVCC</title></rect><rect x="5.7" y="6.95" width="0.2" height="1.5" fill="#28976f"><title>98: HPOUTR</title></rect><rect x="5.3" y="6.95" width="0.2" height="1.5" fill="#28976f"><title>99: HPOUTL</title></rect><rect x="4.9" y="6.95" width="0.2" height="1.5" fill="#28976f"><title>100: HPOUTFB</title></rect><rect x="4.5" y="6.95" width="0.2" height="1.5" fill="#28976f"><title>101: GPADC0</title></rect><rect x="4.1" y="6.95" width="0.2" height="1.5" fill="#28976f"><title>102: TP-X1</title></rect><rect x="3.7" y="6.95" width="0.2" height="1.5" fill="#28976f"><title>103: TP-X2</title></rect><rect x="3.3" y="6.95" width="0.2" height="1.5" fill="#28976f"><title>104: TP-Y1</title></rect><rect x="2.9" y="6.95" width="0.2" height="1.5" fill="#28976f"><title>105: TP-Y2</title></rect><rect x="2.5" y="6.95" width="0.2" height="1.5" fill="#cbd5e1"><title>106: NC0</title></rect><rect x="2.1" y="6.95" width="0.2" height="1.5" fill="#a768be"><title>107: VCC-TVIN</title></rect><rect x="1.7" y="6.95" width="0.2" height="1.5" fill="#28976f"><title>108: TVIN0</title></rect><rect x="1.3" y="6.95" width="0.2" height="1.5" fill="#28976f"><title>109: TVIN1</title></rect><rect x="0.9" y="6.95" width="0.2" height="1.5" fill="#28976f"><title>110: TVIN-VRP</title></rect><rect x="0.5" y="6.95" width="0.2" height="1.5" fill="#28976f"><title>111: TVIN-VRN</title></rect><rect x="0.1" y="6.95" width="0.2" height="1.5" fill="#28976f"><title>112: USB1-DP</title></rect><rect x="-0.3" y="6.95" width="0.2" height="1.5" fill="#28976f"><title>113: USB1-DM</title></rect><rect x="-0.7" y="6.95" width="0.2" height="1.5" fill="#28976f"><title>114: USB0-DM</title></rect><rect x="-1.1" y="6.95" width="0.2" height="1.5" fill="#28976f"><title>115: USB0-DP</title></rect><rect x="-1.5" y="6.95" width="0.2" height="1.5" fill="#2486b1"><title>116: VDD-CORE0</title></rect><rect x="-1.9" y="6.95" width="0.2" height="1.5" fill="#2486b1"><title>117: VDD-CORE1</title></rect><rect x="-2.3" y="6.95" width="0.2" height="1.5" fill="#28976f"><title>118: PG1</title></rect><rect x="-2.7" y="6.95" width="0.2" height="1.5" fill="#28976f"><title>119: PG2</title></rect><rect x="-3.1" y="6.95" width="0.2" height="1.5" fill="#28976f"><title>120: PG0</title></rect><rect x="-3.5" y="6.95" width="0.2" height="1.5" fill="#28976f"><title>121: PG3</title></rect><rect x="-3.9" y="6.95" width="0.2" height="1.5" fill="#28976f"><title>122: PG5</title></rect><rect x="-4.3" y="6.95" width="0.2" height="1.5" fill="#28976f"><title>123: PG4</title></rect><rect x="-4.7" y="6.95" width="0.2" height="1.5" fill="#28976f"><title>124: PG12</title></rect><rect x="-5.1" y="6.95" width="0.2" height="1.5" fill="#28976f"><title>125: PG13</title></rect><rect x="-5.5" y="6.95" width="0.2" height="1.5" fill="#28976f"><title>126: PG14</title></rect><rect x="-5.9" y="6.95" width="0.2" height="1.5" fill="#28976f"><title>127: PG15</title></rect><rect x="-6.3" y="6.95" width="0.2" height="1.5" fill="#dc4a31"><title>128: VCC-PG</title></rect><rect x="-2.86" y="-2.86" width="5.72" height="5.72" fill="#526274"><title>129: EPAD</title></rect><circle cx="-6.4" cy="6.4" r=".2" fill="#294052"/></g><g id="terminals-top"><circle cx="-7.75" cy="0" r=".2" fill="#28976f"><title>1: PG6</title></circle><circle cx="-7.25" cy="0" r=".2" fill="#28976f"><title>2: PG7</title></circle><circle cx="-6.75" cy="0" r=".2" fill="#28976f"><title>3: PG8</title></circle><circle cx="-6.25" cy="0" r=".2" fill="#28976f"><title>4: PG9</title></circle><circle cx="-5.75" cy="0" r=".2" fill="#28976f"><title>5: PG10</title></circle><circle cx="-5.25" cy="0" r=".2" fill="#28976f"><title>6: PG11</title></circle><circle cx="-4.75" cy="0" r=".2" fill="#28976f"><title>98: HPOUTR</title></circle><circle cx="-4.25" cy="0" r=".2" fill="#28976f"><title>99: HPOUTL</title></circle><circle cx="-3.75" cy="0" r=".2" fill="#28976f"><title>100: HPOUTFB</title></circle><circle cx="-3.25" cy="0" r=".2" fill="#28976f"><title>101: GPADC0</title></circle><circle cx="-2.75" cy="0" r=".2" fill="#28976f"><title>102: TP-X1</title></circle><circle cx="-2.25" cy="0" r=".2" fill="#28976f"><title>103: TP-X2</title></circle><circle cx="-1.75" cy="0" r=".2" fill="#28976f"><title>104: TP-Y1</title></circle><circle cx="-1.25" cy="0" r=".2" fill="#28976f"><title>105: TP-Y2</title></circle><circle cx="-0.75" cy="0" r=".2" fill="#28976f"><title>108: TVIN0</title></circle><circle cx="-0.25" cy="0" r=".2" fill="#28976f"><title>109: TVIN1</title></circle><circle cx="0.25" cy="0" r=".2" fill="#28976f"><title>110: TVIN-VRP</title></circle><circle cx="0.75" cy="0" r=".2" fill="#28976f"><title>111: TVIN-VRN</title></circle><circle cx="1.25" cy="0" r=".2" fill="#28976f"><title>112: USB1-DP</title></circle><circle cx="1.75" cy="0" r=".2" fill="#28976f"><title>113: USB1-DM</title></circle><circle cx="2.25" cy="0" r=".2" fill="#28976f"><title>114: USB0-DM</title></circle><circle cx="2.75" cy="0" r=".2" fill="#28976f"><title>115: USB0-DP</title></circle><circle cx="3.25" cy="0" r=".2" fill="#28976f"><title>118: PG1</title></circle><circle cx="3.75" cy="0" r=".2" fill="#28976f"><title>119: PG2</title></circle><circle cx="4.25" cy="0" r=".2" fill="#28976f"><title>120: PG0</title></circle><circle cx="4.75" cy="0" r=".2" fill="#28976f"><title>121: PG3</title></circle><circle cx="5.25" cy="0" r=".2" fill="#28976f"><title>122: PG5</title></circle><circle cx="5.75" cy="0" r=".2" fill="#28976f"><title>123: PG4</title></circle><circle cx="6.25" cy="0" r=".2" fill="#28976f"><title>124: PG12</title></circle><circle cx="6.75" cy="0" r=".2" fill="#28976f"><title>125: PG13</title></circle><circle cx="7.25" cy="0" r=".2" fill="#28976f"><title>126: PG14</title></circle><circle cx="7.75" cy="0" r=".2" fill="#28976f"><title>127: PG15</title></circle></g><g id="terminals-right"><circle cx="-6.75" cy="0" r=".2" fill="#28976f"><title>52: PD22</title></circle><circle cx="-6.25" cy="0" r=".2" fill="#28976f"><title>53: PD21</title></circle><circle cx="-5.75" cy="0" r=".2" fill="#28976f"><title>54: PD20</title></circle><circle cx="-5.25" cy="0" r=".2" fill="#28976f"><title>67: PD10</title></circle><circle cx="-4.75" cy="0" r=".2" fill="#28976f"><title>68: PD11</title></circle><circle cx="-4.25" cy="0" r=".2" fill="#28976f"><title>69: PD13</title></circle><circle cx="-3.75" cy="0" r=".2" fill="#28976f"><title>70: PD12</title></circle><circle cx="-3.25" cy="0" r=".2" fill="#28976f"><title>71: PD14</title></circle><circle cx="-2.75" cy="0" r=".2" fill="#28976f"><title>72: PD15</title></circle><circle cx="-2.25" cy="0" r=".2" fill="#28976f"><title>73: PD16</title></circle><circle cx="-1.75" cy="0" r=".2" fill="#28976f"><title>74: PD17</title></circle><circle cx="-1.25" cy="0" r=".2" fill="#28976f"><title>75: PD18</title></circle><circle cx="-0.75" cy="0" r=".2" fill="#28976f"><title>76: PD19</title></circle><circle cx="-0.25" cy="0" r=".2" fill="#28976f"><title>78: TVOUT0</title></circle><circle cx="0.25" cy="0" r=".2" fill="#28976f"><title>79: PB7</title></circle><circle cx="0.75" cy="0" r=".2" fill="#28976f"><title>80: PB6</title></circle><circle cx="1.25" cy="0" r=".2" fill="#28976f"><title>82: PB5</title></circle><circle cx="1.75" cy="0" r=".2" fill="#28976f"><title>84: PB4</title></circle><circle cx="2.25" cy="0" r=".2" fill="#28976f"><title>85: PB3</title></circle><circle cx="2.75" cy="0" r=".2" fill="#28976f"><title>86: PB2</title></circle><circle cx="3.25" cy="0" r=".2" fill="#28976f"><title>87: MICIN3P</title></circle><circle cx="3.75" cy="0" r=".2" fill="#28976f"><title>88: MICIN3N</title></circle><circle cx="4.25" cy="0" r=".2" fill="#28976f"><title>90: VRA2</title></circle><circle cx="4.75" cy="0" r=".2" fill="#28976f"><title>92: VRA1</title></circle><circle cx="5.25" cy="0" r=".2" fill="#28976f"><title>93: FMINR</title></circle><circle cx="5.75" cy="0" r=".2" fill="#28976f"><title>94: FMINL</title></circle><circle cx="6.25" cy="0" r=".2" fill="#28976f"><title>95: LINEINR</title></circle><circle cx="6.75" cy="0" r=".2" fill="#28976f"><title>96: LINEINL</title></circle></g><g id="terminals-bottom"><circle cx="-6" cy="0" r=".2" fill="#28976f"><title>31: PE13</title></circle><circle cx="-5.5" cy="0" r=".2" fill="#28976f"><title>32: PE12</title></circle><circle cx="-5" cy="0" r=".2" fill="#28976f"><title>33: PE3</title></circle><circle cx="-4.5" cy="0" r=".2" fill="#28976f"><title>35: PE2</title></circle><circle cx="-4" cy="0" r=".2" fill="#28976f"><title>36: PE11</title></circle><circle cx="-3.5" cy="0" r=".2" fill="#28976f"><title>37: PE10</title></circle><circle cx="-3" cy="0" r=".2" fill="#28976f"><title>38: PE9</title></circle><circle cx="-2.5" cy="0" r=".2" fill="#28976f"><title>39: PE8</title></circle><circle cx="-2" cy="0" r=".2" fill="#28976f"><title>40: PE7</title></circle><circle cx="-1.5" cy="0" r=".2" fill="#28976f"><title>41: PE6</title></circle><circle cx="-1" cy="0" r=".2" fill="#28976f"><title>42: PE5</title></circle><circle cx="-0.5" cy="0" r=".2" fill="#28976f"><title>43: PE4</title></circle><circle cx="0" cy="0" r=".2" fill="#28976f"><title>44: PE0</title></circle><circle cx="0.5" cy="0" r=".2" fill="#28976f"><title>45: PE1</title></circle><circle cx="1" cy="0" r=".2" fill="#28976f"><title>47: DZQ</title></circle><circle cx="1.5" cy="0" r=".2" fill="#28976f"><title>55: PD0</title></circle><circle cx="2" cy="0" r=".2" fill="#28976f"><title>56: PD1</title></circle><circle cx="2.5" cy="0" r=".2" fill="#28976f"><title>57: PD2</title></circle><circle cx="3" cy="0" r=".2" fill="#28976f"><title>58: PD3</title></circle><circle cx="3.5" cy="0" r=".2" fill="#28976f"><title>59: PD4</title></circle><circle cx="4" cy="0" r=".2" fill="#28976f"><title>60: PD5</title></circle><circle cx="4.5" cy="0" r=".2" fill="#28976f"><title>61: PD6</title></circle><circle cx="5" cy="0" r=".2" fill="#28976f"><title>62: PD7</title></circle><circle cx="5.5" cy="0" r=".2" fill="#28976f"><title>63: PD8</title></circle><circle cx="6" cy="0" r=".2" fill="#28976f"><title>64: PD9</title></circle></g><g id="terminals-left"><circle cx="-5" cy="0" r=".2" fill="#28976f"><title>7: PF0</title></circle><circle cx="-4.5" cy="0" r=".2" fill="#28976f"><title>8: PF1</title></circle><circle cx="-4" cy="0" r=".2" fill="#28976f"><title>9: PF2</title></circle><circle cx="-3.5" cy="0" r=".2" fill="#28976f"><title>10: PF3</title></circle><circle cx="-3" cy="0" r=".2" fill="#28976f"><title>11: PF4</title></circle><circle cx="-2.5" cy="0" r=".2" fill="#28976f"><title>12: PF5</title></circle><circle cx="-2" cy="0" r=".2" fill="#28976f"><title>13: PF6</title></circle><circle cx="-1.5" cy="0" r=".2" fill="#28976f"><title>14: PC7</title></circle><circle cx="-1" cy="0" r=".2" fill="#28976f"><title>15: PC6</title></circle><circle cx="-0.5" cy="0" r=".2" fill="#28976f"><title>16: PC5</title></circle><circle cx="0" cy="0" r=".2" fill="#28976f"><title>17: PC4</title></circle><circle cx="0.5" cy="0" r=".2" fill="#28976f"><title>18: PC3</title></circle><circle cx="1" cy="0" r=".2" fill="#28976f"><title>19: PC2</title></circle><circle cx="1.5" cy="0" r=".2" fill="#28976f"><title>21: REFCLK-OUT</title></circle><circle cx="2" cy="0" r=".2" fill="#28976f"><title>22: DXOUT</title></circle><circle cx="2.5" cy="0" r=".2" fill="#28976f"><title>23: DXIN</title></circle><circle cx="3" cy="0" r=".2" fill="#28976f"><title>24: X32KOUT</title></circle><circle cx="3.5" cy="0" r=".2" fill="#28976f"><title>25: X32KIN</title></circle><circle cx="4" cy="0" r=".2" fill="#28976f"><title>27: RESET</title></circle><circle cx="4.5" cy="0" r=".2" fill="#28976f"><title>28: LDOA-OUT</title></circle><circle cx="5" cy="0" r=".2" fill="#28976f"><title>30: LDOB-OUT</title></circle></g><marker id="arrow" markerWidth="4" markerHeight="4" refX="3" refY="2" orient="auto"><path d="M0 0L4 2L0 4" fill="none" stroke="#608eac" stroke-width=".7"/></marker></defs>
<rect width="1032" height="1386" fill="#eef3f7"/>
<text x="24" y="36" font-size="26" font-weight="700">T113-S3 · Every non-NC pin</text>
<text x="24" y="61" font-size="14">106 external connections · 22 plane drops · 4 orientations × 3 offsets</text>
<text x="24" y="83" font-size="12">Dashed line = breakout boundary · numbers = terminal counts · arrows show direction, not solved routes</text>
<rect x="24" y="99" width="10" height="10" fill="#28976f"/><text x="40" y="108" font-size="12">External pin</text><rect x="165" y="99" width="10" height="10" fill="#cbd5e1"/><text x="181" y="108" font-size="12">NC (106)</text><rect x="306" y="99" width="10" height="10" fill="#526274"/><text x="322" y="108" font-size="12">GND</text><rect x="447" y="99" width="10" height="10" fill="#dc4a31"/><text x="463" y="108" font-size="12">3.3 V</text><rect x="588" y="99" width="10" height="10" fill="#a768be"/><text x="604" y="108" font-size="12">1.8 V</text><rect x="729" y="99" width="10" height="10" fill="#c79820"/><text x="745" y="108" font-size="12">1.5 V</text><rect x="870" y="99" width="10" height="10" fill="#2486b1"/><text x="886" y="108" font-size="12">0.95 V</text><g transform="translate(24 126)">
<rect width="320" height="300" rx="10" fill="white" stroke="#d9e3eb"/>
<text x="16" y="27" font-size="14" font-weight="600">49 · 0° · negative offset</text>
<g transform="translate(160 166) scale(4.4 -4.4)">
<rect x="-24" y="-24" width="48" height="48" rx="1" fill="#f7fafc" stroke="#e4edf3" stroke-width=".15"/>
<rect x="-10.45" y="-10.45" width="20.9" height="20.9" fill="none" stroke="#9bb4c8" stroke-width=".2" stroke-dasharray=".6 .6"/>
<g transform="rotate(0)"><use href="#soc"/></g>
<g transform="translate(-0.75 18) rotate(0)"><use href="#terminals-top"/></g><g transform="translate(18 0.75) rotate(90)"><use href="#terminals-right"/></g><g transform="translate(0.75 -18) rotate(0)"><use href="#terminals-bottom"/></g><g transform="translate(-18 -0.75) rotate(90)"><use href="#terminals-left"/></g>
<path transform="rotate(0)" d="M0 12V15" fill="none" stroke="#608eac" stroke-width=".25" marker-end="url(#arrow)"/><path transform="rotate(90)" d="M0 12V15" fill="none" stroke="#608eac" stroke-width=".25" marker-end="url(#arrow)"/><path transform="rotate(180)" d="M0 12V15" fill="none" stroke="#608eac" stroke-width=".25" marker-end="url(#arrow)"/><path transform="rotate(270)" d="M0 12V15" fill="none" stroke="#608eac" stroke-width=".25" marker-end="url(#arrow)"/>
</g><text x="156.7" y="79.8" font-size="10" text-anchor="middle">32</text><text x="249.2" y="166.7" font-size="10" text-anchor="start">28</text><text x="163.3" y="259.2" font-size="10" text-anchor="middle">25</text><text x="70.8" y="173.3" font-size="10" text-anchor="end">21</text>
<text x="160" y="287" text-anchor="middle" font-size="10">Bus exits on all four edges · 2 mm padding</text>
</g>
<g transform="translate(356 126)">
<rect width="320" height="300" rx="10" fill="white" stroke="#d9e3eb"/>
<text x="16" y="27" font-size="14" font-weight="600">50 · 0° · centered</text>
<g transform="translate(160 166) scale(4.4 -4.4)">
<rect x="-24" y="-24" width="48" height="48" rx="1" fill="#f7fafc" stroke="#e4edf3" stroke-width=".15"/>
<rect x="-10.45" y="-10.45" width="20.9" height="20.9" fill="none" stroke="#9bb4c8" stroke-width=".2" stroke-dasharray=".6 .6"/>
<g transform="rotate(0)"><use href="#soc"/></g>
<g transform="translate(0 18) rotate(0)"><use href="#terminals-top"/></g><g transform="translate(18 0) rotate(90)"><use href="#terminals-right"/></g><g transform="translate(0 -18) rotate(0)"><use href="#terminals-bottom"/></g><g transform="translate(-18 0) rotate(90)"><use href="#terminals-left"/></g>
<path transform="rotate(0)" d="M0 12V15" fill="none" stroke="#608eac" stroke-width=".25" marker-end="url(#arrow)"/><path transform="rotate(90)" d="M0 12V15" fill="none" stroke="#608eac" stroke-width=".25" marker-end="url(#arrow)"/><path transform="rotate(180)" d="M0 12V15" fill="none" stroke="#608eac" stroke-width=".25" marker-end="url(#arrow)"/><path transform="rotate(270)" d="M0 12V15" fill="none" stroke="#608eac" stroke-width=".25" marker-end="url(#arrow)"/>
</g><text x="160" y="79.8" font-size="10" text-anchor="middle">32</text><text x="249.2" y="170" font-size="10" text-anchor="start">28</text><text x="160" y="259.2" font-size="10" text-anchor="middle">25</text><text x="70.8" y="170" font-size="10" text-anchor="end">21</text>
<text x="160" y="287" text-anchor="middle" font-size="10">Bus exits on all four edges · 2 mm padding</text>
</g>
<g transform="translate(688 126)">
<rect width="320" height="300" rx="10" fill="white" stroke="#d9e3eb"/>
<text x="16" y="27" font-size="14" font-weight="600">51 · 0° · positive offset</text>
<g transform="translate(160 166) scale(4.4 -4.4)">
<rect x="-24" y="-24" width="48" height="48" rx="1" fill="#f7fafc" stroke="#e4edf3" stroke-width=".15"/>
<rect x="-10.45" y="-10.45" width="20.9" height="20.9" fill="none" stroke="#9bb4c8" stroke-width=".2" stroke-dasharray=".6 .6"/>
<g transform="rotate(0)"><use href="#soc"/></g>
<g transform="translate(0.75 18) rotate(0)"><use href="#terminals-top"/></g><g transform="translate(18 -0.75) rotate(90)"><use href="#terminals-right"/></g><g transform="translate(-0.75 -18) rotate(0)"><use href="#terminals-bottom"/></g><g transform="translate(-18 0.75) rotate(90)"><use href="#terminals-left"/></g>
<path transform="rotate(0)" d="M0 12V15" fill="none" stroke="#608eac" stroke-width=".25" marker-end="url(#arrow)"/><path transform="rotate(90)" d="M0 12V15" fill="none" stroke="#608eac" stroke-width=".25" marker-end="url(#arrow)"/><path transform="rotate(180)" d="M0 12V15" fill="none" stroke="#608eac" stroke-width=".25" marker-end="url(#arrow)"/><path transform="rotate(270)" d="M0 12V15" fill="none" stroke="#608eac" stroke-width=".25" marker-end="url(#arrow)"/>
</g><text x="163.3" y="79.8" font-size="10" text-anchor="middle">32</text><text x="249.2" y="173.3" font-size="10" text-anchor="start">28</text><text x="156.7" y="259.2" font-size="10" text-anchor="middle">25</text><text x="70.8" y="166.7" font-size="10" text-anchor="end">21</text>
<text x="160" y="287" text-anchor="middle" font-size="10">Bus exits on all four edges · 2 mm padding</text>
</g>
<g transform="translate(24 438)">
<rect width="320" height="300" rx="10" fill="white" stroke="#d9e3eb"/>
<text x="16" y="27" font-size="14" font-weight="600">52 · 270° · negative offset</text>
<g transform="translate(160 166) scale(4.4 -4.4)">
<rect x="-24" y="-24" width="48" height="48" rx="1" fill="#f7fafc" stroke="#e4edf3" stroke-width=".15"/>
<rect x="-10.45" y="-10.45" width="20.9" height="20.9" fill="none" stroke="#9bb4c8" stroke-width=".2" stroke-dasharray=".6 .6"/>
<g transform="rotate(270)"><use href="#soc"/></g>
<g transform="translate(18 0.75) rotate(270)"><use href="#terminals-top"/></g><g transform="translate(0.75 -18) rotate(0)"><use href="#terminals-right"/></g><g transform="translate(-18 -0.75) rotate(270)"><use href="#terminals-bottom"/></g><g transform="translate(-0.75 18) rotate(0)"><use href="#terminals-left"/></g>
<path transform="rotate(0)" d="M0 12V15" fill="none" stroke="#608eac" stroke-width=".25" marker-end="url(#arrow)"/><path transform="rotate(90)" d="M0 12V15" fill="none" stroke="#608eac" stroke-width=".25" marker-end="url(#arrow)"/><path transform="rotate(180)" d="M0 12V15" fill="none" stroke="#608eac" stroke-width=".25" marker-end="url(#arrow)"/><path transform="rotate(270)" d="M0 12V15" fill="none" stroke="#608eac" stroke-width=".25" marker-end="url(#arrow)"/>
</g><text x="249.2" y="166.7" font-size="10" text-anchor="start">32</text><text x="163.3" y="259.2" font-size="10" text-anchor="middle">28</text><text x="70.8" y="173.3" font-size="10" text-anchor="end">25</text><text x="156.7" y="79.8" font-size="10" text-anchor="middle">21</text>
<text x="160" y="287" text-anchor="middle" font-size="10">Bus exits on all four edges · 2 mm padding</text>
</g>
<g transform="translate(356 438)">
<rect width="320" height="300" rx="10" fill="white" stroke="#d9e3eb"/>
<text x="16" y="27" font-size="14" font-weight="600">53 · 270° · centered</text>
<g transform="translate(160 166) scale(4.4 -4.4)">
<rect x="-24" y="-24" width="48" height="48" rx="1" fill="#f7fafc" stroke="#e4edf3" stroke-width=".15"/>
<rect x="-10.45" y="-10.45" width="20.9" height="20.9" fill="none" stroke="#9bb4c8" stroke-width=".2" stroke-dasharray=".6 .6"/>
<g transform="rotate(270)"><use href="#soc"/></g>
<g transform="translate(18 0) rotate(270)"><use href="#terminals-top"/></g><g transform="translate(0 -18) rotate(0)"><use href="#terminals-right"/></g><g transform="translate(-18 0) rotate(270)"><use href="#terminals-bottom"/></g><g transform="translate(0 18) rotate(0)"><use href="#terminals-left"/></g>
<path transform="rotate(0)" d="M0 12V15" fill="none" stroke="#608eac" stroke-width=".25" marker-end="url(#arrow)"/><path transform="rotate(90)" d="M0 12V15" fill="none" stroke="#608eac" stroke-width=".25" marker-end="url(#arrow)"/><path transform="rotate(180)" d="M0 12V15" fill="none" stroke="#608eac" stroke-width=".25" marker-end="url(#arrow)"/><path transform="rotate(270)" d="M0 12V15" fill="none" stroke="#608eac" stroke-width=".25" marker-end="url(#arrow)"/>
</g><text x="249.2" y="170" font-size="10" text-anchor="start">32</text><text x="160" y="259.2" font-size="10" text-anchor="middle">28</text><text x="70.8" y="170" font-size="10" text-anchor="end">25</text><text x="160" y="79.8" font-size="10" text-anchor="middle">21</text>
<text x="160" y="287" text-anchor="middle" font-size="10">Bus exits on all four edges · 2 mm padding</text>
</g>
<g transform="translate(688 438)">
<rect width="320" height="300" rx="10" fill="white" stroke="#d9e3eb"/>
<text x="16" y="27" font-size="14" font-weight="600">54 · 270° · positive offset</text>
<g transform="translate(160 166) scale(4.4 -4.4)">
<rect x="-24" y="-24" width="48" height="48" rx="1" fill="#f7fafc" stroke="#e4edf3" stroke-width=".15"/>
<rect x="-10.45" y="-10.45" width="20.9" height="20.9" fill="none" stroke="#9bb4c8" stroke-width=".2" stroke-dasharray=".6 .6"/>
<g transform="rotate(270)"><use href="#soc"/></g>
<g transform="translate(18 -0.75) rotate(270)"><use href="#terminals-top"/></g><g transform="translate(-0.75 -18) rotate(0)"><use href="#terminals-right"/></g><g transform="translate(-18 0.75) rotate(270)"><use href="#terminals-bottom"/></g><g transform="translate(0.75 18) rotate(0)"><use href="#terminals-left"/></g>
<path transform="rotate(0)" d="M0 12V15" fill="none" stroke="#608eac" stroke-width=".25" marker-end="url(#arrow)"/><path transform="rotate(90)" d="M0 12V15" fill="none" stroke="#608eac" stroke-width=".25" marker-end="url(#arrow)"/><path transform="rotate(180)" d="M0 12V15" fill="none" stroke="#608eac" stroke-width=".25" marker-end="url(#arrow)"/><path transform="rotate(270)" d="M0 12V15" fill="none" stroke="#608eac" stroke-width=".25" marker-end="url(#arrow)"/>
</g><text x="249.2" y="173.3" font-size="10" text-anchor="start">32</text><text x="156.7" y="259.2" font-size="10" text-anchor="middle">28</text><text x="70.8" y="166.7" font-size="10" text-anchor="end">25</text><text x="163.3" y="79.8" font-size="10" text-anchor="middle">21</text>
<text x="160" y="287" text-anchor="middle" font-size="10">Bus exits on all four edges · 2 mm padding</text>
</g>
<g transform="translate(24 750)">
<rect width="320" height="300" rx="10" fill="white" stroke="#d9e3eb"/>
<text x="16" y="27" font-size="14" font-weight="600">55 · 180° · negative offset</text>
<g transform="translate(160 166) scale(4.4 -4.4)">
<rect x="-24" y="-24" width="48" height="48" rx="1" fill="#f7fafc" stroke="#e4edf3" stroke-width=".15"/>
<rect x="-10.45" y="-10.45" width="20.9" height="20.9" fill="none" stroke="#9bb4c8" stroke-width=".2" stroke-dasharray=".6 .6"/>
<g transform="rotate(180)"><use href="#soc"/></g>
<g transform="translate(0.75 -18) rotate(180)"><use href="#terminals-top"/></g><g transform="translate(-18 -0.75) rotate(270)"><use href="#terminals-right"/></g><g transform="translate(-0.75 18) rotate(180)"><use href="#terminals-bottom"/></g><g transform="translate(18 0.75) rotate(270)"><use href="#terminals-left"/></g>
<path transform="rotate(0)" d="M0 12V15" fill="none" stroke="#608eac" stroke-width=".25" marker-end="url(#arrow)"/><path transform="rotate(90)" d="M0 12V15" fill="none" stroke="#608eac" stroke-width=".25" marker-end="url(#arrow)"/><path transform="rotate(180)" d="M0 12V15" fill="none" stroke="#608eac" stroke-width=".25" marker-end="url(#arrow)"/><path transform="rotate(270)" d="M0 12V15" fill="none" stroke="#608eac" stroke-width=".25" marker-end="url(#arrow)"/>
</g><text x="163.3" y="259.2" font-size="10" text-anchor="middle">32</text><text x="70.8" y="173.3" font-size="10" text-anchor="end">28</text><text x="156.7" y="79.8" font-size="10" text-anchor="middle">25</text><text x="249.2" y="166.7" font-size="10" text-anchor="start">21</text>
<text x="160" y="287" text-anchor="middle" font-size="10">Bus exits on all four edges · 2 mm padding</text>
</g>
<g transform="translate(356 750)">
<rect width="320" height="300" rx="10" fill="white" stroke="#d9e3eb"/>
<text x="16" y="27" font-size="14" font-weight="600">56 · 180° · centered</text>
<g transform="translate(160 166) scale(4.4 -4.4)">
<rect x="-24" y="-24" width="48" height="48" rx="1" fill="#f7fafc" stroke="#e4edf3" stroke-width=".15"/>
<rect x="-10.45" y="-10.45" width="20.9" height="20.9" fill="none" stroke="#9bb4c8" stroke-width=".2" stroke-dasharray=".6 .6"/>
<g transform="rotate(180)"><use href="#soc"/></g>
<g transform="translate(0 -18) rotate(180)"><use href="#terminals-top"/></g><g transform="translate(-18 0) rotate(270)"><use href="#terminals-right"/></g><g transform="translate(0 18) rotate(180)"><use href="#terminals-bottom"/></g><g transform="translate(18 0) rotate(270)"><use href="#terminals-left"/></g>
<path transform="rotate(0)" d="M0 12V15" fill="none" stroke="#608eac" stroke-width=".25" marker-end="url(#arrow)"/><path transform="rotate(90)" d="M0 12V15" fill="none" stroke="#608eac" stroke-width=".25" marker-end="url(#arrow)"/><path transform="rotate(180)" d="M0 12V15" fill="none" stroke="#608eac" stroke-width=".25" marker-end="url(#arrow)"/><path transform="rotate(270)" d="M0 12V15" fill="none" stroke="#608eac" stroke-width=".25" marker-end="url(#arrow)"/>
</g><text x="160" y="259.2" font-size="10" text-anchor="middle">32</text><text x="70.8" y="170" font-size="10" text-anchor="end">28</text><text x="160" y="79.8" font-size="10" text-anchor="middle">25</text><text x="249.2" y="170" font-size="10" text-anchor="start">21</text>
<text x="160" y="287" text-anchor="middle" font-size="10">Bus exits on all four edges · 2 mm padding</text>
</g>
<g transform="translate(688 750)">
<rect width="320" height="300" rx="10" fill="white" stroke="#d9e3eb"/>
<text x="16" y="27" font-size="14" font-weight="600">57 · 180° · positive offset</text>
<g transform="translate(160 166) scale(4.4 -4.4)">
<rect x="-24" y="-24" width="48" height="48" rx="1" fill="#f7fafc" stroke="#e4edf3" stroke-width=".15"/>
<rect x="-10.45" y="-10.45" width="20.9" height="20.9" fill="none" stroke="#9bb4c8" stroke-width=".2" stroke-dasharray=".6 .6"/>
<g transform="rotate(180)"><use href="#soc"/></g>
<g transform="translate(-0.75 -18) rotate(180)"><use href="#terminals-top"/></g><g transform="translate(-18 0.75) rotate(270)"><use href="#terminals-right"/></g><g transform="translate(0.75 18) rotate(180)"><use href="#terminals-bottom"/></g><g transform="translate(18 -0.75) rotate(270)"><use href="#terminals-left"/></g>
<path transform="rotate(0)" d="M0 12V15" fill="none" stroke="#608eac" stroke-width=".25" marker-end="url(#arrow)"/><path transform="rotate(90)" d="M0 12V15" fill="none" stroke="#608eac" stroke-width=".25" marker-end="url(#arrow)"/><path transform="rotate(180)" d="M0 12V15" fill="none" stroke="#608eac" stroke-width=".25" marker-end="url(#arrow)"/><path transform="rotate(270)" d="M0 12V15" fill="none" stroke="#608eac" stroke-width=".25" marker-end="url(#arrow)"/>
</g><text x="156.7" y="259.2" font-size="10" text-anchor="middle">32</text><text x="70.8" y="166.7" font-size="10" text-anchor="end">28</text><text x="163.3" y="79.8" font-size="10" text-anchor="middle">25</text><text x="249.2" y="173.3" font-size="10" text-anchor="start">21</text>
<text x="160" y="287" text-anchor="middle" font-size="10">Bus exits on all four edges · 2 mm padding</text>
</g>
<g transform="translate(24 1062)">
<rect width="320" height="300" rx="10" fill="white" stroke="#d9e3eb"/>
<text x="16" y="27" font-size="14" font-weight="600">58 · 90° · negative offset</text>
<g transform="translate(160 166) scale(4.4 -4.4)">
<rect x="-24" y="-24" width="48" height="48" rx="1" fill="#f7fafc" stroke="#e4edf3" stroke-width=".15"/>
<rect x="-10.45" y="-10.45" width="20.9" height="20.9" fill="none" stroke="#9bb4c8" stroke-width=".2" stroke-dasharray=".6 .6"/>
<g transform="rotate(90)"><use href="#soc"/></g>
<g transform="translate(-18 -0.75) rotate(90)"><use href="#terminals-top"/></g><g transform="translate(-0.75 18) rotate(180)"><use href="#terminals-right"/></g><g transform="translate(18 0.75) rotate(90)"><use href="#terminals-bottom"/></g><g transform="translate(0.75 -18) rotate(180)"><use href="#terminals-left"/></g>
<path transform="rotate(0)" d="M0 12V15" fill="none" stroke="#608eac" stroke-width=".25" marker-end="url(#arrow)"/><path transform="rotate(90)" d="M0 12V15" fill="none" stroke="#608eac" stroke-width=".25" marker-end="url(#arrow)"/><path transform="rotate(180)" d="M0 12V15" fill="none" stroke="#608eac" stroke-width=".25" marker-end="url(#arrow)"/><path transform="rotate(270)" d="M0 12V15" fill="none" stroke="#608eac" stroke-width=".25" marker-end="url(#arrow)"/>
</g><text x="70.8" y="173.3" font-size="10" text-anchor="end">32</text><text x="156.7" y="79.8" font-size="10" text-anchor="middle">28</text><text x="249.2" y="166.7" font-size="10" text-anchor="start">25</text><text x="163.3" y="259.2" font-size="10" text-anchor="middle">21</text>
<text x="160" y="287" text-anchor="middle" font-size="10">Bus exits on all four edges · 2 mm padding</text>
</g>
<g transform="translate(356 1062)">
<rect width="320" height="300" rx="10" fill="white" stroke="#d9e3eb"/>
<text x="16" y="27" font-size="14" font-weight="600">59 · 90° · centered</text>
<g transform="translate(160 166) scale(4.4 -4.4)">
<rect x="-24" y="-24" width="48" height="48" rx="1" fill="#f7fafc" stroke="#e4edf3" stroke-width=".15"/>
<rect x="-10.45" y="-10.45" width="20.9" height="20.9" fill="none" stroke="#9bb4c8" stroke-width=".2" stroke-dasharray=".6 .6"/>
<g transform="rotate(90)"><use href="#soc"/></g>
<g transform="translate(-18 0) rotate(90)"><use href="#terminals-top"/></g><g transform="translate(0 18) rotate(180)"><use href="#terminals-right"/></g><g transform="translate(18 0) rotate(90)"><use href="#terminals-bottom"/></g><g transform="translate(0 -18) rotate(180)"><use href="#terminals-left"/></g>
<path transform="rotate(0)" d="M0 12V15" fill="none" stroke="#608eac" stroke-width=".25" marker-end="url(#arrow)"/><path transform="rotate(90)" d="M0 12V15" fill="none" stroke="#608eac" stroke-width=".25" marker-end="url(#arrow)"/><path transform="rotate(180)" d="M0 12V15" fill="none" stroke="#608eac" stroke-width=".25" marker-end="url(#arrow)"/><path transform="rotate(270)" d="M0 12V15" fill="none" stroke="#608eac" stroke-width=".25" marker-end="url(#arrow)"/>
</g><text x="70.8" y="170" font-size="10" text-anchor="end">32</text><text x="160" y="79.8" font-size="10" text-anchor="middle">28</text><text x="249.2" y="170" font-size="10" text-anchor="start">25</text><text x="160" y="259.2" font-size="10" text-anchor="middle">21</text>
<text x="160" y="287" text-anchor="middle" font-size="10">Bus exits on all four edges · 2 mm padding</text>
</g>
<g transform="translate(688 1062)">
<rect width="320" height="300" rx="10" fill="white" stroke="#d9e3eb"/>
<text x="16" y="27" font-size="14" font-weight="600">60 · 90° · positive offset</text>
<g transform="translate(160 166) scale(4.4 -4.4)">
<rect x="-24" y="-24" width="48" height="48" rx="1" fill="#f7fafc" stroke="#e4edf3" stroke-width=".15"/>
<rect x="-10.45" y="-10.45" width="20.9" height="20.9" fill="none" stroke="#9bb4c8" stroke-width=".2" stroke-dasharray=".6 .6"/>
<g transform="rotate(90)"><use href="#soc"/></g>
<g transform="translate(-18 0.75) rotate(90)"><use href="#terminals-top"/></g><g transform="translate(0.75 18) rotate(180)"><use href="#terminals-right"/></g><g transform="translate(18 -0.75) rotate(90)"><use href="#terminals-bottom"/></g><g transform="translate(-0.75 -18) rotate(180)"><use href="#terminals-left"/></g>
<path transform="rotate(0)" d="M0 12V15" fill="none" stroke="#608eac" stroke-width=".25" marker-end="url(#arrow)"/><path transform="rotate(90)" d="M0 12V15" fill="none" stroke="#608eac" stroke-width=".25" marker-end="url(#arrow)"/><path transform="rotate(180)" d="M0 12V15" fill="none" stroke="#608eac" stroke-width=".25" marker-end="url(#arrow)"/><path transform="rotate(270)" d="M0 12V15" fill="none" stroke="#608eac" stroke-width=".25" marker-end="url(#arrow)"/>
</g><text x="70.8" y="166.7" font-size="10" text-anchor="end">32</text><text x="163.3" y="79.8" font-size="10" text-anchor="middle">28</text><text x="249.2" y="173.3" font-size="10" text-anchor="start">25</text><text x="156.7" y="259.2" font-size="10" text-anchor="middle">21</text>
<text x="160" y="287" text-anchor="middle" font-size="10">Bus exits on all four edges · 2 mm padding</text>
</g>
</svg>
