<svg xmlns="http://www.w3.org/2000/svg" width="1032" height="1386" viewBox="0 0 1032 1386" role="img" aria-labelledby="title description">
<title id="title">T113-S3: twelve all-pin fanout fixtures</title>
<desc id="description">The 128-lead QFP and its exposed ground pad stay fixed. 106 independent external terminals move to each side and offset. Twenty supply pins and both ground pads drop to five separate plane layers. Pin 106 is NC. Dashed squares show SoC breakout boundaries. No solved routes are shown.</desc>
<style>text{font-family:system-ui,-apple-system,sans-serif;fill:#294052}</style>
<defs><g id="soc"><rect x="-7" y="-7" width="14" height="14" fill="#e7eef4" stroke="#506a80" stroke-width=".15"/><rect x="-8.45" y="6.1" width="1.5" height="0.2" fill="#28976f"><title>1: PG6</title></rect><rect x="-8.45" y="5.7" width="1.5" height="0.2" fill="#28976f"><title>2: PG7</title></rect><rect x="-8.45" y="5.3" width="1.5" height="0.2" fill="#28976f"><title>3: PG8</title></rect><rect x="-8.45" y="4.9" width="1.5" height="0.2" fill="#28976f"><title>4: PG9</title></rect><rect x="-8.45" y="4.5" width="1.5" height="0.2" fill="#28976f"><title>5: PG10</title></rect><rect x="-8.45" y="4.1" width="1.5" height="0.2" fill="#28976f"><title>6: PG11</title></rect><rect x="-8.45" y="3.7" width="1.5" height="0.2" fill="#28976f"><title>7: PF0</title></rect><rect x="-8.45" y="3.3" width="1.5" height="0.2" fill="#28976f"><title>8: PF1</title></rect><rect x="-8.45" y="2.9" width="1.5" height="0.2" fill="#28976f"><title>9: PF2</title></rect><rect x="-8.45" y="2.5" width="1.5" height="0.2" fill="#28976f"><title>10: PF3</title></rect><rect x="-8.45" y="2.1" width="1.5" height="0.2" fill="#28976f"><title>11: PF4</title></rect><rect x="-8.45" y="1.7" width="1.5" height="0.2" fill="#28976f"><title>12: PF5</title></rect><rect x="-8.45" y="1.3" width="1.5" height="0.2" fill="#28976f"><title>13: PF6</title></rect><rect x="-8.45" y="0.9" width="1.5" height="0.2" fill="#28976f"><title>14: PC7</title></rect><rect x="-8.45" y="0.5" width="1.5" height="0.2" fill="#28976f"><title>15: PC6</title></rect><rect x="-8.45" y="0.1" width="1.5" height="0.2" fill="#28976f"><title>16: PC5</title></rect><rect x="-8.45" y="-0.3" width="1.5" height="0.2" fill="#28976f"><title>17: PC4</title></rect><rect x="-8.45" y="-0.7" width="1.5" height="0.2" fill="#28976f"><title>18: PC3</title></rect><rect x="-8.45" y="-1.1" width="1.5" height="0.2" fill="#28976f"><title>19: PC2</title></rect><rect x="-8.45" y="-1.5" width="1.5" height="0.2" fill="#a768be"><title>20: VCC-PLL</title></rect><rect x="-8.45" y="-1.9" width="1.5" height="0.2" fill="#28976f"><title>21: REFCLK-OUT</title></rect><rect x="-8.45" y="-2.3" width="1.5" height="0.2" fill="#28976f"><title>22: DXOUT</title></rect><rect x="-8.45" y="-2.7" width="1.5" height="0.2" fill="#28976f"><title>23: DXIN</title></rect><rect x="-8.45" y="-3.1" width="1.5" height="0.2" fill="#28976f"><title>24: X32KOUT</title></rect><rect x="-8.45" y="-3.5" width="1.5" height="0.2" fill="#28976f"><title>25: X32KIN</title></rect><rect x="-8.45" y="-3.9" width="1.5" height="0.2" fill="#a768be"><title>26: VCC-RTC</title></rect><rect x="-8.45" y="-4.3" width="1.5" height="0.2" fill="#28976f"><title>27: RESET</title></rect><rect x="-8.45" y="-4.7" width="1.5" height="0.2" fill="#28976f"><title>28: LDOA-OUT</title></rect><rect x="-8.45" y="-5.1" width="1.5" height="0.2" fill="#dc4a31"><title>29: LDO-IN</title></rect><rect x="-8.45" y="-5.5" width="1.5" height="0.2" fill="#28976f"><title>30: LDOB-OUT</title></rect><rect x="-8.45" y="-5.9" width="1.5" height="0.2" fill="#28976f"><title>31: PE13</title></rect><rect x="-8.45" y="-6.3" width="1.5" height="0.2" fill="#28976f"><title>32: PE12</title></rect><rect x="-6.3" y="-8.45" width="0.2" height="1.5" fill="#28976f"><title>33: PE3</title></rect><rect x="-5.9" y="-8.45" width="0.2" height="1.5" fill="#dc4a31"><title>34: VCC-PE</title></rect><rect x="-5.5" y="-8.45" width="0.2" height="1.5" fill="#28976f"><title>35: PE2</title></rect><rect x="-5.1" y="-8.45" width="0.2" height="1.5" fill="#28976f"><title>36: PE11</title></rect><rect x="-4.7" y="-8.45" width="0.2" height="1.5" fill="#28976f"><title>37: PE10</title></rect><rect x="-4.3" y="-8.45" width="0.2" height="1.5" fill="#28976f"><title>38: PE9</title></rect><rect x="-3.9" y="-8.45" width="0.2" height="1.5" fill="#28976f"><title>39: PE8</title></rect><rect x="-3.5" y="-8.45" width="0.2" height="1.5" fill="#28976f"><title>40: PE7</title></rect><rect x="-3.1" y="-8.45" width="0.2" height="1.5" fill="#28976f"><title>41: PE6</title></rect><rect x="-2.7" y="-8.45" width="0.2" height="1.5" fill="#28976f"><title>42: PE5</title></rect><rect x="-2.3" y="-8.45" width="0.2" height="1.5" fill="#28976f"><title>43: PE4</title></rect><rect x="-1.9" y="-8.45" width="0.2" height="1.5" fill="#28976f"><title>44: PE0</title></rect><rect x="-1.5" y="-8.45" width="0.2" height="1.5" fill="#28976f"><title>45: PE1</title></rect><rect x="-1.1" y="-8.45" width="0.2" height="1.5" fill="#2486b1"><title>46: VDD-SYS0</title></rect><rect x="-0.7" y="-8.45" width="0.2" height="1.5" fill="#28976f"><title>47: DZQ</title></rect><rect x="-0.3" y="-8.45" width="0.2" height="1.5" fill="#c79820"><title>48: VCC-DRAM0</title></rect><rect x="0.1" y="-8.45" width="0.2" height="1.5" fill="#c79820"><title>49: VCC-DRAM1</title></rect><rect x="0.5" y="-8.45" width="0.2" height="1.5" fill="#a768be"><title>50: VDD18-DRAM</title></rect><rect x="0.9" y="-8.45" width="0.2" height="1.5" fill="#2486b1"><title>51: VDD-SYS1</title></rect><rect x="1.3" y="-8.45" width="0.2" height="1.5" fill="#28976f"><title>52: PD22</title></rect><rect x="1.7" y="-8.45" width="0.2" height="1.5" fill="#28976f"><title>53: PD21</title></rect><rect x="2.1" y="-8.45" width="0.2" height="1.5" fill="#28976f"><title>54: PD20</title></rect><rect x="2.5" y="-8.45" width="0.2" height="1.5" fill="#28976f"><title>55: PD0</title></rect><rect x="2.9" y="-8.45" width="0.2" height="1.5" fill="#28976f"><title>56: PD1</title></rect><rect x="3.3" y="-8.45" width="0.2" height="1.5" fill="#28976f"><title>57: PD2</title></rect><rect x="3.7" y="-8.45" width="0.2" height="1.5" fill="#28976f"><title>58: PD3</title></rect><rect x="4.1" y="-8.45" width="0.2" height="1.5" fill="#28976f"><title>59: PD4</title></rect><rect x="4.5" y="-8.45" width="0.2" height="1.5" fill="#28976f"><title>60: PD5</title></rect><rect x="4.9" y="-8.45" width="0.2" height="1.5" fill="#28976f"><title>61: PD6</title></rect><rect x="5.3" y="-8.45" width="0.2" height="1.5" fill="#28976f"><title>62: PD7</title></rect><rect x="5.7" y="-8.45" width="0.2" height="1.5" fill="#28976f"><title>63: PD8</title></rect><rect x="6.1" y="-8.45" width="0.2" height="1.5" fill="#28976f"><title>64: PD9</title></rect><rect x="6.95" y="-6.3" width="1.5" height="0.2" fill="#a768be"><title>65: VCC-LVDS</title></rect><rect x="6.95" y="-5.9" width="1.5" height="0.2" fill="#dc4a31"><title>66: VCC-PD</title></rect><rect x="6.95" y="-5.5" width="1.5" height="0.2" fill="#28976f"><title>67: PD10</title></rect><rect x="6.95" y="-5.1" width="1.5" height="0.2" fill="#28976f"><title>68: PD11</title></rect><rect x="6.95" y="-4.7" width="1.5" height="0.2" fill="#28976f"><title>69: PD13</title></rect><rect x="6.95" y="-4.3" width="1.5" height="0.2" fill="#28976f"><title>70: PD12</title></rect><rect x="6.95" y="-3.9" width="1.5" height="0.2" fill="#28976f"><title>71: PD14</title></rect><rect x="6.95" y="-3.5" width="1.5" height="0.2" fill="#28976f"><title>72: PD15</title></rect><rect x="6.95" y="-3.1" width="1.5" height="0.2" fill="#28976f"><title>73: PD16</title></rect><rect x="6.95" y="-2.7" width="1.5" height="0.2" fill="#28976f"><title>74: PD17</title></rect><rect x="6.95" y="-2.3" width="1.5" height="0.2" fill="#28976f"><title>75: PD18</title></rect><rect x="6.95" y="-1.9" width="1.5" height="0.2" fill="#28976f"><title>76: PD19</title></rect><rect x="6.95" y="-1.5" width="1.5" height="0.2" fill="#dc4a31"><title>77: VCC-TVOUT</title></rect><rect x="6.95" y="-1.1" width="1.5" height="0.2" fill="#28976f"><title>78: TVOUT0</title></rect><rect x="6.95" y="-0.7" width="1.5" height="0.2" fill="#28976f"><title>79: PB7</title></rect><rect x="6.95" y="-0.3" width="1.5" height="0.2" fill="#28976f"><title>80: PB6</title></rect><rect x="6.95" y="0.1" width="1.5" height="0.2" fill="#2486b1"><title>81: VDD-SYS2</title></rect><rect x="6.95" y="0.5" width="1.5" height="0.2" fill="#28976f"><title>82: PB5</title></rect><rect x="6.95" y="0.9" width="1.5" height="0.2" fill="#dc4a31"><title>83: VCC-IO</title></rect><rect x="6.95" y="1.3" width="1.5" height="0.2" fill="#28976f"><title>84: PB4</title></rect><rect x="6.95" y="1.7" width="1.5" height="0.2" fill="#28976f"><title>85: PB3</title></rect><rect x="6.95" y="2.1" width="1.5" height="0.2" fill="#28976f"><title>86: PB2</title></rect><rect x="6.95" y="2.5" width="1.5" height="0.2" fill="#28976f"><title>87: MICIN3P</title></rect><rect x="6.95" y="2.9" width="1.5" height="0.2" fill="#28976f"><title>88: MICIN3N</title></rect><rect x="6.95" y="3.3" width="1.5" height="0.2" fill="#a768be"><title>89: AVCC</title></rect><rect x="6.95" y="3.7" width="1.5" height="0.2" fill="#28976f"><title>90: VRA2</title></rect><rect x="6.95" y="4.1" width="1.5" height="0.2" fill="#526274"><title>91: AGND</title></rect><rect x="6.95" y="4.5" width="1.5" height="0.2" fill="#28976f"><title>92: VRA1</title></rect><rect x="6.95" y="4.9" width="1.5" height="0.2" fill="#28976f"><title>93: FMINR</title></rect><rect x="6.95" y="5.3" width="1.5" height="0.2" fill="#28976f"><title>94: FMINL</title></rect><rect x="6.95" y="5.7" width="1.5" height="0.2" fill="#28976f"><title>95: LINEINR</title></rect><rect x="6.95" y="6.1" width="1.5" height="0.2" fill="#28976f"><title>96: LINEINL</title></rect><rect x="6.1" y="6.95" width="0.2" height="1.5" fill="#a768be"><title>97: HPVCC</title></rect><rect x="5.7" y="6.95" width="0.2" height="1.5" fill="#28976f"><title>98: HPOUTR</title></rect><rect x="5.3" y="6.95" width="0.2" height="1.5" fill="#28976f"><title>99: HPOUTL</title></rect><rect x="4.9" y="6.95" width="0.2" height="1.5" fill="#28976f"><title>100: HPOUTFB</title></rect><rect x="4.5" y="6.95" width="0.2" height="1.5" fill="#28976f"><title>101: GPADC0</title></rect><rect x="4.1" y="6.95" width="0.2" height="1.5" fill="#28976f"><title>102: TP-X1</title></rect><rect x="3.7" y="6.95" width="0.2" height="1.5" fill="#28976f"><title>103: TP-X2</title></rect><rect x="3.3" y="6.95" width="0.2" height="1.5" fill="#28976f"><title>104: TP-Y1</title></rect><rect x="2.9" y="6.95" width="0.2" height="1.5" fill="#28976f"><title>105: TP-Y2</title></rect><rect x="2.5" y="6.95" width="0.2" height="1.5" fill="#cbd5e1"><title>106: NC0</title></rect><rect x="2.1" y="6.95" width="0.2" height="1.5" fill="#a768be"><title>107: VCC-TVIN</title></rect><rect x="1.7" y="6.95" width="0.2" height="1.5" fill="#28976f"><title>108: TVIN0</title></rect><rect x="1.3" y="6.95" width="0.2" height="1.5" fill="#28976f"><title>109: TVIN1</title></rect><rect x="0.9" y="6.95" width="0.2" height="1.5" fill="#28976f"><title>110: TVIN-VRP</title></rect><rect x="0.5" y="6.95" width="0.2" height="1.5" fill="#28976f"><title>111: TVIN-VRN</title></rect><rect x="0.1" y="6.95" width="0.2" height="1.5" fill="#28976f"><title>112: USB1-DP</title></rect><rect x="-0.3" y="6.95" width="0.2" height="1.5" fill="#28976f"><title>113: USB1-DM</title></rect><rect x="-0.7" y="6.95" width="0.2" height="1.5" fill="#28976f"><title>114: USB0-DM</title></rect><rect x="-1.1" y="6.95" width="0.2" height="1.5" fill="#28976f"><title>115: USB0-DP</title></rect><rect x="-1.5" y="6.95" width="0.2" height="1.5" fill="#2486b1"><title>116: VDD-CORE0</title></rect><rect x="-1.9" y="6.95" width="0.2" height="1.5" fill="#2486b1"><title>117: VDD-CORE1</title></rect><rect x="-2.3" y="6.95" width="0.2" height="1.5" fill="#28976f"><title>118: PG1</title></rect><rect x="-2.7" y="6.95" width="0.2" height="1.5" fill="#28976f"><title>119: PG2</title></rect><rect x="-3.1" y="6.95" width="0.2" height="1.5" fill="#28976f"><title>120: PG0</title></rect><rect x="-3.5" y="6.95" width="0.2" height="1.5" fill="#28976f"><title>121: PG3</title></rect><rect x="-3.9" y="6.95" width="0.2" height="1.5" fill="#28976f"><title>122: PG5</title></rect><rect x="-4.3" y="6.95" width="0.2" height="1.5" fill="#28976f"><title>123: PG4</title></rect><rect x="-4.7" y="6.95" width="0.2" height="1.5" fill="#28976f"><title>124: PG12</title></rect><rect x="-5.1" y="6.95" width="0.2" height="1.5" fill="#28976f"><title>125: PG13</title></rect><rect x="-5.5" y="6.95" width="0.2" height="1.5" fill="#28976f"><title>126: PG14</title></rect><rect x="-5.9" y="6.95" width="0.2" height="1.5" fill="#28976f"><title>127: PG15</title></rect><rect x="-6.3" y="6.95" width="0.2" height="1.5" fill="#dc4a31"><title>128: VCC-PG</title></rect><rect x="-2.86" y="-2.86" width="5.72" height="5.72" fill="#526274"><title>129: EPAD</title></rect><circle cx="-6.4" cy="6.4" r=".2" fill="#294052"/></g><g id="terminals"><circle cx="-20.8" cy="0.8" r=".2" fill="#28976f"><title>1: PG6</title></circle><circle cx="-20" cy="0.8" r=".2" fill="#28976f"><title>2: PG7</title></circle><circle cx="-19.2" cy="0.8" r=".2" fill="#28976f"><title>3: PG8</title></circle><circle cx="-18.4" cy="0.8" r=".2" fill="#28976f"><title>4: PG9</title></circle><circle cx="-17.6" cy="0.8" r=".2" fill="#28976f"><title>5: PG10</title></circle><circle cx="-16.8" cy="0.8" r=".2" fill="#28976f"><title>6: PG11</title></circle><circle cx="-16" cy="0.8" r=".2" fill="#28976f"><title>7: PF0</title></circle><circle cx="-15.2" cy="0.8" r=".2" fill="#28976f"><title>8: PF1</title></circle><circle cx="-14.4" cy="0.8" r=".2" fill="#28976f"><title>9: PF2</title></circle><circle cx="-13.6" cy="0.8" r=".2" fill="#28976f"><title>10: PF3</title></circle><circle cx="-12.8" cy="0.8" r=".2" fill="#28976f"><title>11: PF4</title></circle><circle cx="-12" cy="0.8" r=".2" fill="#28976f"><title>12: PF5</title></circle><circle cx="-11.2" cy="0.8" r=".2" fill="#28976f"><title>13: PF6</title></circle><circle cx="-10.4" cy="0.8" r=".2" fill="#28976f"><title>14: PC7</title></circle><circle cx="-9.6" cy="0.8" r=".2" fill="#28976f"><title>15: PC6</title></circle><circle cx="-8.8" cy="0.8" r=".2" fill="#28976f"><title>16: PC5</title></circle><circle cx="-8" cy="0.8" r=".2" fill="#28976f"><title>17: PC4</title></circle><circle cx="-7.2" cy="0.8" r=".2" fill="#28976f"><title>18: PC3</title></circle><circle cx="-6.4" cy="0.8" r=".2" fill="#28976f"><title>19: PC2</title></circle><circle cx="-5.6" cy="0.8" r=".2" fill="#28976f"><title>21: REFCLK-OUT</title></circle><circle cx="-4.8" cy="0.8" r=".2" fill="#28976f"><title>22: DXOUT</title></circle><circle cx="-4" cy="0.8" r=".2" fill="#28976f"><title>23: DXIN</title></circle><circle cx="-3.2" cy="0.8" r=".2" fill="#28976f"><title>24: X32KOUT</title></circle><circle cx="-2.4" cy="0.8" r=".2" fill="#28976f"><title>25: X32KIN</title></circle><circle cx="-1.6" cy="0.8" r=".2" fill="#28976f"><title>27: RESET</title></circle><circle cx="-0.8" cy="0.8" r=".2" fill="#28976f"><title>28: LDOA-OUT</title></circle><circle cx="0" cy="0.8" r=".2" fill="#28976f"><title>30: LDOB-OUT</title></circle><circle cx="0.8" cy="0.8" r=".2" fill="#28976f"><title>31: PE13</title></circle><circle cx="1.6" cy="0.8" r=".2" fill="#28976f"><title>32: PE12</title></circle><circle cx="2.4" cy="0.8" r=".2" fill="#28976f"><title>33: PE3</title></circle><circle cx="3.2" cy="0.8" r=".2" fill="#28976f"><title>35: PE2</title></circle><circle cx="4" cy="0.8" r=".2" fill="#28976f"><title>36: PE11</title></circle><circle cx="4.8" cy="0.8" r=".2" fill="#28976f"><title>37: PE10</title></circle><circle cx="5.6" cy="0.8" r=".2" fill="#28976f"><title>38: PE9</title></circle><circle cx="6.4" cy="0.8" r=".2" fill="#28976f"><title>39: PE8</title></circle><circle cx="7.2" cy="0.8" r=".2" fill="#28976f"><title>40: PE7</title></circle><circle cx="8" cy="0.8" r=".2" fill="#28976f"><title>41: PE6</title></circle><circle cx="8.8" cy="0.8" r=".2" fill="#28976f"><title>42: PE5</title></circle><circle cx="9.6" cy="0.8" r=".2" fill="#28976f"><title>43: PE4</title></circle><circle cx="10.4" cy="0.8" r=".2" fill="#28976f"><title>44: PE0</title></circle><circle cx="11.2" cy="0.8" r=".2" fill="#28976f"><title>45: PE1</title></circle><circle cx="12" cy="0.8" r=".2" fill="#28976f"><title>47: DZQ</title></circle><circle cx="12.8" cy="0.8" r=".2" fill="#28976f"><title>52: PD22</title></circle><circle cx="13.6" cy="0.8" r=".2" fill="#28976f"><title>53: PD21</title></circle><circle cx="14.4" cy="0.8" r=".2" fill="#28976f"><title>54: PD20</title></circle><circle cx="15.2" cy="0.8" r=".2" fill="#28976f"><title>55: PD0</title></circle><circle cx="16" cy="0.8" r=".2" fill="#28976f"><title>56: PD1</title></circle><circle cx="16.8" cy="0.8" r=".2" fill="#28976f"><title>57: PD2</title></circle><circle cx="17.6" cy="0.8" r=".2" fill="#28976f"><title>58: PD3</title></circle><circle cx="18.4" cy="0.8" r=".2" fill="#28976f"><title>59: PD4</title></circle><circle cx="19.2" cy="0.8" r=".2" fill="#28976f"><title>60: PD5</title></circle><circle cx="20" cy="0.8" r=".2" fill="#28976f"><title>61: PD6</title></circle><circle cx="20.8" cy="0.8" r=".2" fill="#28976f"><title>62: PD7</title></circle><circle cx="-20.8" cy="-0.8" r=".2" fill="#28976f"><title>63: PD8</title></circle><circle cx="-20" cy="-0.8" r=".2" fill="#28976f"><title>64: PD9</title></circle><circle cx="-19.2" cy="-0.8" r=".2" fill="#28976f"><title>67: PD10</title></circle><circle cx="-18.4" cy="-0.8" r=".2" fill="#28976f"><title>68: PD11</title></circle><circle cx="-17.6" cy="-0.8" r=".2" fill="#28976f"><title>69: PD13</title></circle><circle cx="-16.8" cy="-0.8" r=".2" fill="#28976f"><title>70: PD12</title></circle><circle cx="-16" cy="-0.8" r=".2" fill="#28976f"><title>71: PD14</title></circle><circle cx="-15.2" cy="-0.8" r=".2" fill="#28976f"><title>72: PD15</title></circle><circle cx="-14.4" cy="-0.8" r=".2" fill="#28976f"><title>73: PD16</title></circle><circle cx="-13.6" cy="-0.8" r=".2" fill="#28976f"><title>74: PD17</title></circle><circle cx="-12.8" cy="-0.8" r=".2" fill="#28976f"><title>75: PD18</title></circle><circle cx="-12" cy="-0.8" r=".2" fill="#28976f"><title>76: PD19</title></circle><circle cx="-11.2" cy="-0.8" r=".2" fill="#28976f"><title>78: TVOUT0</title></circle><circle cx="-10.4" cy="-0.8" r=".2" fill="#28976f"><title>79: PB7</title></circle><circle cx="-9.6" cy="-0.8" r=".2" fill="#28976f"><title>80: PB6</title></circle><circle cx="-8.8" cy="-0.8" r=".2" fill="#28976f"><title>82: PB5</title></circle><circle cx="-8" cy="-0.8" r=".2" fill="#28976f"><title>84: PB4</title></circle><circle cx="-7.2" cy="-0.8" r=".2" fill="#28976f"><title>85: PB3</title></circle><circle cx="-6.4" cy="-0.8" r=".2" fill="#28976f"><title>86: PB2</title></circle><circle cx="-5.6" cy="-0.8" r=".2" fill="#28976f"><title>87: MICIN3P</title></circle><circle cx="-4.8" cy="-0.8" r=".2" fill="#28976f"><title>88: MICIN3N</title></circle><circle cx="-4" cy="-0.8" r=".2" fill="#28976f"><title>90: VRA2</title></circle><circle cx="-3.2" cy="-0.8" r=".2" fill="#28976f"><title>92: VRA1</title></circle><circle cx="-2.4" cy="-0.8" r=".2" fill="#28976f"><title>93: FMINR</title></circle><circle cx="-1.6" cy="-0.8" r=".2" fill="#28976f"><title>94: FMINL</title></circle><circle cx="-0.8" cy="-0.8" r=".2" fill="#28976f"><title>95: LINEINR</title></circle><circle cx="0" cy="-0.8" r=".2" fill="#28976f"><title>96: LINEINL</title></circle><circle cx="0.8" cy="-0.8" r=".2" fill="#28976f"><title>98: HPOUTR</title></circle><circle cx="1.6" cy="-0.8" r=".2" fill="#28976f"><title>99: HPOUTL</title></circle><circle cx="2.4" cy="-0.8" r=".2" fill="#28976f"><title>100: HPOUTFB</title></circle><circle cx="3.2" cy="-0.8" r=".2" fill="#28976f"><title>101: GPADC0</title></circle><circle cx="4" cy="-0.8" r=".2" fill="#28976f"><title>102: TP-X1</title></circle><circle cx="4.8" cy="-0.8" r=".2" fill="#28976f"><title>103: TP-X2</title></circle><circle cx="5.6" cy="-0.8" r=".2" fill="#28976f"><title>104: TP-Y1</title></circle><circle cx="6.4" cy="-0.8" r=".2" fill="#28976f"><title>105: TP-Y2</title></circle><circle cx="7.2" cy="-0.8" r=".2" fill="#28976f"><title>108: TVIN0</title></circle><circle cx="8" cy="-0.8" r=".2" fill="#28976f"><title>109: TVIN1</title></circle><circle cx="8.8" cy="-0.8" r=".2" fill="#28976f"><title>110: TVIN-VRP</title></circle><circle cx="9.6" cy="-0.8" r=".2" fill="#28976f"><title>111: TVIN-VRN</title></circle><circle cx="10.4" cy="-0.8" r=".2" fill="#28976f"><title>112: USB1-DP</title></circle><circle cx="11.2" cy="-0.8" r=".2" fill="#28976f"><title>113: USB1-DM</title></circle><circle cx="12" cy="-0.8" r=".2" fill="#28976f"><title>114: USB0-DM</title></circle><circle cx="12.8" cy="-0.8" r=".2" fill="#28976f"><title>115: USB0-DP</title></circle><circle cx="13.6" cy="-0.8" r=".2" fill="#28976f"><title>118: PG1</title></circle><circle cx="14.4" cy="-0.8" r=".2" fill="#28976f"><title>119: PG2</title></circle><circle cx="15.2" cy="-0.8" r=".2" fill="#28976f"><title>120: PG0</title></circle><circle cx="16" cy="-0.8" r=".2" fill="#28976f"><title>121: PG3</title></circle><circle cx="16.8" cy="-0.8" r=".2" fill="#28976f"><title>122: PG5</title></circle><circle cx="17.6" cy="-0.8" r=".2" fill="#28976f"><title>123: PG4</title></circle><circle cx="18.4" cy="-0.8" r=".2" fill="#28976f"><title>124: PG12</title></circle><circle cx="19.2" cy="-0.8" r=".2" fill="#28976f"><title>125: PG13</title></circle><circle cx="20" cy="-0.8" r=".2" fill="#28976f"><title>126: PG14</title></circle><circle cx="20.8" cy="-0.8" r=".2" fill="#28976f"><title>127: PG15</title></circle></g></defs>
<rect width="1032" height="1386" fill="#eef3f7"/>
<text x="24" y="36" font-size="26" font-weight="700">T113-S3 · Every non-NC pin</text>
<text x="24" y="61" font-size="14">106 external connections · 22 plane drops · 12 directional placements</text>
<text x="24" y="83" font-size="12">Placement overview · dashed line = SoC breakout boundary · routes not shown</text>
<rect x="24" y="99" width="10" height="10" fill="#28976f"/><text x="40" y="108" font-size="12">External pin</text><rect x="165" y="99" width="10" height="10" fill="#cbd5e1"/><text x="181" y="108" font-size="12">NC (106)</text><rect x="306" y="99" width="10" height="10" fill="#526274"/><text x="322" y="108" font-size="12">GND</text><rect x="447" y="99" width="10" height="10" fill="#dc4a31"/><text x="463" y="108" font-size="12">3.3 V</text><rect x="588" y="99" width="10" height="10" fill="#a768be"/><text x="604" y="108" font-size="12">1.8 V</text><rect x="729" y="99" width="10" height="10" fill="#c79820"/><text x="745" y="108" font-size="12">1.5 V</text><rect x="870" y="99" width="10" height="10" fill="#2486b1"/><text x="886" y="108" font-size="12">0.95 V</text><g transform="translate(24 126)">
<rect width="320" height="300" rx="10" fill="white" stroke="#d9e3eb"/>
<text x="16" y="27" font-size="15" font-weight="600">49 Top · left offset</text>
<g transform="translate(160 166) scale(2.15 -2.15)">
<rect x="-56" y="-56" width="112" height="112" rx="1" fill="#f7fafc" stroke="#e4edf3" stroke-width=".15"/>
<rect x="-22.45" y="-22.45" width="44.9" height="44.9" fill="none" stroke="#9bb4c8" stroke-width=".25" stroke-dasharray="1 1"/>
<use href="#soc"/>
<g transform="translate(-8 40) rotate(0)"><use href="#terminals"/></g>
</g>
<text x="160" y="195" text-anchor="middle" font-size="10">T113-S3</text>
<text x="142.8" y="95.15" text-anchor="middle" font-size="10">106 terminals</text>
</g>
<g transform="translate(356 126)">
<rect width="320" height="300" rx="10" fill="white" stroke="#d9e3eb"/>
<text x="16" y="27" font-size="15" font-weight="600">50 Top · centered</text>
<g transform="translate(160 166) scale(2.15 -2.15)">
<rect x="-56" y="-56" width="112" height="112" rx="1" fill="#f7fafc" stroke="#e4edf3" stroke-width=".15"/>
<rect x="-22.45" y="-22.45" width="44.9" height="44.9" fill="none" stroke="#9bb4c8" stroke-width=".25" stroke-dasharray="1 1"/>
<use href="#soc"/>
<g transform="translate(0 40) rotate(0)"><use href="#terminals"/></g>
</g>
<text x="160" y="195" text-anchor="middle" font-size="10">T113-S3</text>
<text x="160" y="95.15" text-anchor="middle" font-size="10">106 terminals</text>
</g>
<g transform="translate(688 126)">
<rect width="320" height="300" rx="10" fill="white" stroke="#d9e3eb"/>
<text x="16" y="27" font-size="15" font-weight="600">51 Top · right offset</text>
<g transform="translate(160 166) scale(2.15 -2.15)">
<rect x="-56" y="-56" width="112" height="112" rx="1" fill="#f7fafc" stroke="#e4edf3" stroke-width=".15"/>
<rect x="-22.45" y="-22.45" width="44.9" height="44.9" fill="none" stroke="#9bb4c8" stroke-width=".25" stroke-dasharray="1 1"/>
<use href="#soc"/>
<g transform="translate(8 40) rotate(0)"><use href="#terminals"/></g>
</g>
<text x="160" y="195" text-anchor="middle" font-size="10">T113-S3</text>
<text x="177.2" y="95.15" text-anchor="middle" font-size="10">106 terminals</text>
</g>
<g transform="translate(24 438)">
<rect width="320" height="300" rx="10" fill="white" stroke="#d9e3eb"/>
<text x="16" y="27" font-size="15" font-weight="600">52 Right · top offset</text>
<g transform="translate(160 166) scale(2.15 -2.15)">
<rect x="-56" y="-56" width="112" height="112" rx="1" fill="#f7fafc" stroke="#e4edf3" stroke-width=".15"/>
<rect x="-22.45" y="-22.45" width="44.9" height="44.9" fill="none" stroke="#9bb4c8" stroke-width=".25" stroke-dasharray="1 1"/>
<use href="#soc"/>
<g transform="translate(40 8) rotate(90)"><use href="#terminals"/></g>
</g>
<text x="160" y="195" text-anchor="middle" font-size="10">T113-S3</text>
<text x="246" y="206.95" text-anchor="middle" font-size="10">106 terminals</text>
</g>
<g transform="translate(356 438)">
<rect width="320" height="300" rx="10" fill="white" stroke="#d9e3eb"/>
<text x="16" y="27" font-size="15" font-weight="600">53 Right · centered</text>
<g transform="translate(160 166) scale(2.15 -2.15)">
<rect x="-56" y="-56" width="112" height="112" rx="1" fill="#f7fafc" stroke="#e4edf3" stroke-width=".15"/>
<rect x="-22.45" y="-22.45" width="44.9" height="44.9" fill="none" stroke="#9bb4c8" stroke-width=".25" stroke-dasharray="1 1"/>
<use href="#soc"/>
<g transform="translate(40 0) rotate(90)"><use href="#terminals"/></g>
</g>
<text x="160" y="195" text-anchor="middle" font-size="10">T113-S3</text>
<text x="246" y="224.15" text-anchor="middle" font-size="10">106 terminals</text>
</g>
<g transform="translate(688 438)">
<rect width="320" height="300" rx="10" fill="white" stroke="#d9e3eb"/>
<text x="16" y="27" font-size="15" font-weight="600">54 Right · bottom offset</text>
<g transform="translate(160 166) scale(2.15 -2.15)">
<rect x="-56" y="-56" width="112" height="112" rx="1" fill="#f7fafc" stroke="#e4edf3" stroke-width=".15"/>
<rect x="-22.45" y="-22.45" width="44.9" height="44.9" fill="none" stroke="#9bb4c8" stroke-width=".25" stroke-dasharray="1 1"/>
<use href="#soc"/>
<g transform="translate(40 -8) rotate(90)"><use href="#terminals"/></g>
</g>
<text x="160" y="195" text-anchor="middle" font-size="10">T113-S3</text>
<text x="246" y="241.35" text-anchor="middle" font-size="10">106 terminals</text>
</g>
<g transform="translate(24 750)">
<rect width="320" height="300" rx="10" fill="white" stroke="#d9e3eb"/>
<text x="16" y="27" font-size="15" font-weight="600">55 Bottom · right offset</text>
<g transform="translate(160 166) scale(2.15 -2.15)">
<rect x="-56" y="-56" width="112" height="112" rx="1" fill="#f7fafc" stroke="#e4edf3" stroke-width=".15"/>
<rect x="-22.45" y="-22.45" width="44.9" height="44.9" fill="none" stroke="#9bb4c8" stroke-width=".25" stroke-dasharray="1 1"/>
<use href="#soc"/>
<g transform="translate(8 -40) rotate(0)"><use href="#terminals"/></g>
</g>
<text x="160" y="195" text-anchor="middle" font-size="10">T113-S3</text>
<text x="177.2" y="267.15" text-anchor="middle" font-size="10">106 terminals</text>
</g>
<g transform="translate(356 750)">
<rect width="320" height="300" rx="10" fill="white" stroke="#d9e3eb"/>
<text x="16" y="27" font-size="15" font-weight="600">56 Bottom · centered</text>
<g transform="translate(160 166) scale(2.15 -2.15)">
<rect x="-56" y="-56" width="112" height="112" rx="1" fill="#f7fafc" stroke="#e4edf3" stroke-width=".15"/>
<rect x="-22.45" y="-22.45" width="44.9" height="44.9" fill="none" stroke="#9bb4c8" stroke-width=".25" stroke-dasharray="1 1"/>
<use href="#soc"/>
<g transform="translate(0 -40) rotate(0)"><use href="#terminals"/></g>
</g>
<text x="160" y="195" text-anchor="middle" font-size="10">T113-S3</text>
<text x="160" y="267.15" text-anchor="middle" font-size="10">106 terminals</text>
</g>
<g transform="translate(688 750)">
<rect width="320" height="300" rx="10" fill="white" stroke="#d9e3eb"/>
<text x="16" y="27" font-size="15" font-weight="600">57 Bottom · left offset</text>
<g transform="translate(160 166) scale(2.15 -2.15)">
<rect x="-56" y="-56" width="112" height="112" rx="1" fill="#f7fafc" stroke="#e4edf3" stroke-width=".15"/>
<rect x="-22.45" y="-22.45" width="44.9" height="44.9" fill="none" stroke="#9bb4c8" stroke-width=".25" stroke-dasharray="1 1"/>
<use href="#soc"/>
<g transform="translate(-8 -40) rotate(0)"><use href="#terminals"/></g>
</g>
<text x="160" y="195" text-anchor="middle" font-size="10">T113-S3</text>
<text x="142.8" y="267.15" text-anchor="middle" font-size="10">106 terminals</text>
</g>
<g transform="translate(24 1062)">
<rect width="320" height="300" rx="10" fill="white" stroke="#d9e3eb"/>
<text x="16" y="27" font-size="15" font-weight="600">58 Left · bottom offset</text>
<g transform="translate(160 166) scale(2.15 -2.15)">
<rect x="-56" y="-56" width="112" height="112" rx="1" fill="#f7fafc" stroke="#e4edf3" stroke-width=".15"/>
<rect x="-22.45" y="-22.45" width="44.9" height="44.9" fill="none" stroke="#9bb4c8" stroke-width=".25" stroke-dasharray="1 1"/>
<use href="#soc"/>
<g transform="translate(-40 -8) rotate(90)"><use href="#terminals"/></g>
</g>
<text x="160" y="195" text-anchor="middle" font-size="10">T113-S3</text>
<text x="74" y="241.35" text-anchor="middle" font-size="10">106 terminals</text>
</g>
<g transform="translate(356 1062)">
<rect width="320" height="300" rx="10" fill="white" stroke="#d9e3eb"/>
<text x="16" y="27" font-size="15" font-weight="600">59 Left · centered</text>
<g transform="translate(160 166) scale(2.15 -2.15)">
<rect x="-56" y="-56" width="112" height="112" rx="1" fill="#f7fafc" stroke="#e4edf3" stroke-width=".15"/>
<rect x="-22.45" y="-22.45" width="44.9" height="44.9" fill="none" stroke="#9bb4c8" stroke-width=".25" stroke-dasharray="1 1"/>
<use href="#soc"/>
<g transform="translate(-40 0) rotate(90)"><use href="#terminals"/></g>
</g>
<text x="160" y="195" text-anchor="middle" font-size="10">T113-S3</text>
<text x="74" y="224.15" text-anchor="middle" font-size="10">106 terminals</text>
</g>
<g transform="translate(688 1062)">
<rect width="320" height="300" rx="10" fill="white" stroke="#d9e3eb"/>
<text x="16" y="27" font-size="15" font-weight="600">60 Left · top offset</text>
<g transform="translate(160 166) scale(2.15 -2.15)">
<rect x="-56" y="-56" width="112" height="112" rx="1" fill="#f7fafc" stroke="#e4edf3" stroke-width=".15"/>
<rect x="-22.45" y="-22.45" width="44.9" height="44.9" fill="none" stroke="#9bb4c8" stroke-width=".25" stroke-dasharray="1 1"/>
<use href="#soc"/>
<g transform="translate(-40 8) rotate(90)"><use href="#terminals"/></g>
</g>
<text x="160" y="195" text-anchor="middle" font-size="10">T113-S3</text>
<text x="74" y="206.95" text-anchor="middle" font-size="10">106 terminals</text>
</g>
</svg>
